# xmcd
# 
# Track frame offsets:
#     180
#     17079
#     39064
#     53255
#     86554
#     105252
#     133575
#     153115
#     168568
#     184221
#     209445
#     241745
#     259968
#     282881
#     303415
# 
# Disc length: 4253
# 
# Revision: 5
# Processed by: cddbd v1.5.2PL0 Copyright (c) Steve Scherf et al.
# Submitted via: fre:ac v1.0.27
# 
DISCID=b7109b0f
DTITLE=Black and Blue - BLACK and BLUE VOL. 1 - THE STORY OF THE BLUES 1976-1988 - CD1
DYEAR=1994
DGENRE=Blues
TTITLE0=The Sons Of Blues - You'll Stayed Too Long
TTITLE1=Buster Benton - That's Your Thing
TTITLE2=Byther Smith - Don't Make Me Talk Too Much
TTITLE3=Larry Davis - Tear Drop
TTITLE4=A.C. Reed - My Buddy Buddy Friend
TTITLE5=Maurice John Vaughn - Computer Took My Job
TTITLE6=Jessie Mae Hemphill - Steamline Woman
TTITLE7=James Son Thomas - Sugar Mama Blues
TTITLE8=Eddie Guitar Burns-Billy Branch - Wee Baby Blues
TTITLE9=Little Joe Blue - If You Let Me Love You
TTITLE10=Eddie Clearwater - I Came Up The Hard Way
TTITLE11=Professor Eddie Lusk - Meet Me With Your Black Drawers On
TTITLE12=Michael Coleman - Call My Job
TTITLE13=Screamin' Jay Hawkins - Constipation Blues
TTITLE14=Screamin' Jay Hawkins - Tutti Frutti
EXTD=Fremeaux et Asocies FA031
EXTT0=
EXTT1=
EXTT2=
EXTT3=
EXTT4=
EXTT5=
EXTT6=
EXTT7=
EXTT8=
EXTT9=
EXTT10=
EXTT11=
EXTT12=
EXTT13=
EXTT14=
PLAYORDER=
